<svg xmlns="http://www.w3.org/2000/svg" width="1600" height="1200" viewBox="0 0 400 300" preserveAspectRatio="xMidYMid slice">
  <defs><linearGradient id="bw" x1="0" y1="0" x2="0" y2="1"><stop offset="0" stop-color="#F5EEE0"></stop><stop offset="1" stop-color="#E7D6BA"></stop></linearGradient></defs>
  <rect width="400" height="300" fill="url(#bw)"></rect>
  <g transform="translate(200 116)">
    <g stroke="#6E4A1E" stroke-width="4" stroke-linecap="round"><path d="M-46 -34 46 40"></path><path d="M46 -34 -46 40"></path></g>
    <circle cx="-50" cy="-36" r="4" fill="#6E4A1E"></circle><circle cx="50" cy="-36" r="4" fill="#6E4A1E"></circle>
    <circle r="42" fill="#9C6B2E"></circle>
    <g stroke="#C9A468" stroke-width="2.6" fill="none"><path d="M-34 -8 Q0 -22 34 -2"></path><path d="M-38 8 Q0 26 38 6"></path><path d="M-18 -36 Q6 0 -8 38"></path><path d="M20 -36 Q0 0 16 38"></path></g>
    <path d="M40 24 q26 10 16 32 q-6 12-22 6" stroke="#9C6B2E" stroke-width="4" fill="none" stroke-linecap="round"></path>
  </g>
  <text x="200" y="216" text-anchor="middle" font-family="Didot,'Bodoni 72',Georgia,serif" fill="#3A2712" font-size="30" letter-spacing="2">Bramblewood</text>
  <path d="M120 226 Q200 236 280 226" stroke="#9C6B2E" stroke-width="2.5" fill="none" stroke-linecap="round"></path>
  <text x="200" y="252" text-anchor="middle" fill="#9C6B2E" font-family="Helvetica,Arial,sans-serif" font-weight="700" font-size="9" letter-spacing="6">HERITAGE KNITWEAR</text>
</svg>